{
  "accessors": [
    {
      "bufferView": 2,
      "componentType": 5126,
      "count": 162,
      "max": [
        1.0,
        1.0,
        1.0
      ],
      "min": [
        -1.0,
        -1.0,
        -1.0
      ],
      "type": "VEC3"
    },
    {
      "bufferView": 2,
      "byteOffset": 1944,
      "componentType": 5126,
      "count": 162,
      "max": [
        0.999947190284729,
        1.0,
        1.0
      ],
      "min": [
        -0.999947190284729,
        -1.0,
        -1.0
      ],
      "type": "VEC3"
    },
    {
      "bufferView": 1,
      "componentType": 5126,
      "count": 162,
      "max": [
        1.0,
        1.0
      ],
      "min": [
        0.0,
        0.0
      ],
      "type": "VEC2"
    },
    {
      "bufferView": 0,
      "componentType": 5125,
      "count": 960,
      "type": "SCALAR"
    },
    {
      "bufferView": 2,
      "byteOffset": 3888,
      "componentType": 5126,
      "count": 162,
      "max": [
        1.0,
        1.0,
        1.0
      ],
      "min": [
        -1.0,
        -1.0,
        -1.0
      ],
      "type": "VEC3"
    },
    {
      "bufferView": 2,
      "byteOffset": 5832,
      "componentType": 5126,
      "count": 162,
      "max": [
        0.999947190284729,
        1.0,
        1.0
      ],
      "min": [
        -0.999947190284729,
        -1.0,
        -1.0
      ],
      "type": "VEC3"
    },
    {
      "bufferView": 1,
      "byteOffset": 1296,
      "componentType": 5126,
      "count": 162,
      "max": [
        1.0,
        1.0
      ],
      "min": [
        0.0,
        0.0
      ],
      "type": "VEC2"
    },
    {
      "bufferView": 0,
      "byteOffset": 3840,
      "componentType": 5125,
      "count": 960,
      "type": "SCALAR"
    },
    {
      "bufferView": 2,
      "byteOffset": 7776,
      "componentType": 5126,
      "count": 162,
      "max": [
        1.0,
        1.0,
        1.0
      ],
      "min": [
        -1.0,
        -1.0,
        -1.0
      ],
      "type": "VEC3"
    },
    {
      "bufferView": 2,
      "byteOffset": 9720,
      "componentType": 5126,
      "count": 162,
      "max": [
        0.999947190284729,
        1.0,
        1.0
      ],
      "min": [
        -0.999947190284729,
        -1.0,
        -1.0
      ],
      "type": "VEC3"
    },
    {
      "bufferView": 1,
      "byteOffset": 2592,
      "componentType": 5126,
      "count": 162,
      "max": [
        1.0,
        1.0
      ],
      "min": [
        0.0,
        0.0
      ],
      "type": "VEC2"
    },
    {
      "bufferView": 0,
      "byteOffset": 7680,
      "componentType": 5125,
      "count": 960,
      "type": "SCALAR"
    },
    {
      "bufferView": 2,
      "byteOffset": 11664,
      "componentType": 5126,
      "count": 74,
      "max": [
        1.0,
        1.0,
        0.5
      ],
      "min": [
        -1.0,
        -1.0,
        -0.5
      ],
      "type": "VEC3"
    },
    {
      "bufferView": 2,
      "byteOffset": 12552,
      "componentType": 5126,
      "count": 74,
      "max": [
        0.7243927121162415,
        0.7243927121162415,
        1.0
      ],
      "min": [
        -0.7243927121162415,
        -0.7243927121162415,
        -1.0
      ],
      "type": "VEC3"
    },
    {
      "bufferView": 1,
      "byteOffset": 3888,
      "componentType": 5126,
      "count": 74,
      "max": [
        1.0,
        1.0
      ],
      "min": [
        0.0,
        0.0
      ],
      "type": "VEC2"
    },
    {
      "bufferView": 0,
      "byteOffset": 11520,
      "componentType": 5125,
      "count": 432,
      "type": "SCALAR"
    },
    {
      "bufferView": 2,
      "byteOffset": 13440,
      "componentType": 5126,
      "count": 74,
      "max": [
        1.0,
        1.0,
        0.5
      ],
      "min": [
        -1.0,
        -1.0,
        -0.5
      ],
      "type": "VEC3"
    },
    {
      "bufferView": 2,
      "byteOffset": 14328,
      "componentType": 5126,
      "count": 74,
      "max": [
        0.7243927121162415,
        0.7243927121162415,
        1.0
      ],
      "min": [
        -0.7243927121162415,
        -0.7243927121162415,
        -1.0
      ],
      "type": "VEC3"
    },
    {
      "bufferView": 1,
      "byteOffset": 4480,
      "componentType": 5126,
      "count": 74,
      "max": [
        1.0,
        1.0
      ],
      "min": [
        0.0,
        0.0
      ],
      "type": "VEC2"
    },
    {
      "bufferView": 0,
      "byteOffset": 13248,
      "componentType": 5125,
      "count": 432,
      "type": "SCALAR"
    },
    {
      "bufferView": 2,
      "byteOffset": 15216,
      "componentType": 5126,
      "count": 74,
      "max": [
        1.0,
        1.0,
        0.5
      ],
      "min": [
        -1.0,
        -1.0,
        -0.5
      ],
      "type": "VEC3"
    },
    {
      "bufferView": 2,
      "byteOffset": 16104,
      "componentType": 5126,
      "count": 74,
      "max": [
        0.7243927121162415,
        0.7243927121162415,
        1.0
      ],
      "min": [
        -0.7243927121162415,
        -0.7243927121162415,
        -1.0
      ],
      "type": "VEC3"
    },
    {
      "bufferView": 1,
      "byteOffset": 5072,
      "componentType": 5126,
      "count": 74,
      "max": [
        1.0,
        1.0
      ],
      "min": [
        0.0,
        0.0
      ],
      "type": "VEC2"
    },
    {
      "bufferView": 0,
      "byteOffset": 14976,
      "componentType": 5125,
      "count": 432,
      "type": "SCALAR"
    },
    {
      "bufferView": 2,
      "byteOffset": 16992,
      "componentType": 5126,
      "count": 74,
      "max": [
        1.0,
        1.0,
        0.5
      ],
      "min": [
        -1.0,
        -1.0,
        -0.5
      ],
      "type": "VEC3"
    },
    {
      "bufferView": 2,
      "byteOffset": 17880,
      "componentType": 5126,
      "count": 74,
      "max": [
        0.7243927121162415,
        0.7243927121162415,
        1.0
      ],
      "min": [
        -0.7243927121162415,
        -0.7243927121162415,
        -1.0
      ],
      "type": "VEC3"
    },
    {
      "bufferView": 1,
      "byteOffset": 5664,
      "componentType": 5126,
      "count": 74,
      "max": [
        1.0,
        1.0
      ],
      "min": [
        0.0,
        0.0
      ],
      "type": "VEC2"
    },
    {
      "bufferView": 0,
      "byteOffset": 16704,
      "componentType": 5125,
      "count": 432,
      "type": "SCALAR"
    }
  ],
  "asset": {
    "extras": {
      "author": "vishalbhoir (https://sketchfab.com/vishalbhoir)",
      "license": "CC-BY-4.0 (http://creativecommons.org/licenses/by/4.0/)",
      "source": "https://sketchfab.com/3d-models/water-molecule-712d30117a7d41ccb1f79a1355b69864",
      "title": "Water Molecule"
    },
    "generator": "Sketchfab-12.67.0",
    "version": "2.0"
  },
  "bufferViews": [
    {
      "buffer": 0,
      "byteLength": 18432,
      "name": "floatBufferViews",
      "target": 34963
    },
    {
      "buffer": 0,
      "byteLength": 6256,
      "byteOffset": 18432,
      "byteStride": 8,
      "name": "floatBufferViews",
      "target": 34962
    },
    {
      "buffer": 0,
      "byteLength": 18768,
      "byteOffset": 24688,
      "byteStride": 12,
      "name": "floatBufferViews",
      "target": 34962
    }
  ],
  "buffers": [
    {
      "byteLength": 43456,
      "uri": "scene.bin"
    }
  ],
  "materials": [
    {
      "doubleSided": true,
      "name": "Oxygen",
      "pbrMetallicRoughness": {
        "baseColorFactor": [
          0.8,
          0.0,
          0.000761186,
          1.0
        ],
        "metallicFactor": 0.0,
        "roughnessFactor": 0.5
      }
    },
    {
      "doubleSided": true,
      "name": "Hydrogen",
      "pbrMetallicRoughness": {
        "metallicFactor": 0.0,
        "roughnessFactor": 0.5
      }
    }
  ],
  "meshes": [
    {
      "name": "Object_0",
      "primitives": [
        {
          "attributes": {
            "NORMAL": 1,
            "POSITION": 0,
            "TEXCOORD_0": 2
          },
          "indices": 3,
          "material": 0,
          "mode": 4
        }
      ]
    },
    {
      "name": "Object_1",
      "primitives": [
        {
          "attributes": {
            "NORMAL": 5,
            "POSITION": 4,
            "TEXCOORD_0": 6
          },
          "indices": 7,
          "material": 1,
          "mode": 4
        }
      ]
    },
    {
      "name": "Object_2",
      "primitives": [
        {
          "attributes": {
            "NORMAL": 9,
            "POSITION": 8,
            "TEXCOORD_0": 10
          },
          "indices": 11,
          "material": 1,
          "mode": 4
        }
      ]
    },
    {
      "name": "Object_3",
      "primitives": [
        {
          "attributes": {
            "NORMAL": 13,
            "POSITION": 12,
            "TEXCOORD_0": 14
          },
          "indices": 15,
          "material": 0,
          "mode": 4
        }
      ]
    },
    {
      "name": "Object_4",
      "primitives": [
        {
          "attributes": {
            "NORMAL": 17,
            "POSITION": 16,
            "TEXCOORD_0": 18
          },
          "indices": 19,
          "material": 1,
          "mode": 4
        }
      ]
    },
    {
      "name": "Object_5",
      "primitives": [
        {
          "attributes": {
            "NORMAL": 21,
            "POSITION": 20,
            "TEXCOORD_0": 22
          },
          "indices": 23,
          "material": 0,
          "mode": 4
        }
      ]
    },
    {
      "name": "Object_6",
      "primitives": [
        {
          "attributes": {
            "NORMAL": 25,
            "POSITION": 24,
            "TEXCOORD_0": 26
          },
          "indices": 27,
          "material": 1,
          "mode": 4
        }
      ]
    }
  ],
  "nodes": [
    {
      "children": [
        1
      ],
      "matrix": [
        0.08675458282232285,
        0.0,
        0.0,
        0.0,
        0.0,
        1.9263387068218584e-17,
        -0.08675458282232285,
        0.0,
        0.0,
        0.08675458282232285,
        1.9263387068218584e-17,
        0.0,
        6.016030340560974e-09,
        2.2517333775340376e-07,
        5.130887714699433e-09,
        1.0
      ],
      "name": "Sketchfab_model"
    },
    {
      "children": [
        2
      ],
      "name": "root"
    },
    {
      "children": [
        3,
        5,
        7,
        9,
        11,
        13,
        15
      ],
      "matrix": [
        1.0,
        0.0,
        0.0,
        0.0,
        0.0,
        2.220446049250313e-16,
        1.0,
        0.0,
        0.0,
        -1.0,
        2.220446049250313e-16,
        0.0,
        0.0,
        0.0,
        0.0,
        1.0
      ],
      "name": "GLTF_SceneRootNode"
    },
    {
      "children": [
        4
      ],
      "matrix": [
        -3.499999999999979,
        -2.642426535691209e-07,
        -2.6424260902114356e-07,
        0.0,
        2.642426535691209e-07,
        -5.900558783800136e-07,
        -3.4999999999999396,
        0.0,
        2.6424260902114356e-07,
        -3.4999999999999396,
        5.900558993632288e-07,
        0.0,
        0.0,
        4.415289878845215,
        0.0,
        1.0
      ],
      "name": "Shape_IndexedFaceSet_2"
    },
    {
      "mesh": 0,
      "name": "Object_4"
    },
    {
      "children": [
        6
      ],
      "matrix": [
        -2.5299999713897554,
        -1.9100968741995226e-07,
        -1.9100965521812902e-07,
        0.0,
        1.9100968741995226e-07,
        -4.265261015485144e-07,
        -2.529999971389727,
        0.0,
        1.9100965521812902e-07,
        -2.529999971389727,
        4.2652611671638117e-07,
        0.0,
        8.109999656677246,
        9.681289672851563,
        0.0,
        1.0
      ],
      "name": "Shape_IndexedFaceSet.001_3"
    },
    {
      "mesh": 1,
      "name": "Object_6"
    },
    {
      "children": [
        8
      ],
      "matrix": [
        -2.5299999713897554,
        -1.9100968741995226e-07,
        -1.9100965521812902e-07,
        0.0,
        1.9100968741995226e-07,
        -4.265261015485144e-07,
        -2.529999971389727,
        0.0,
        1.9100965521812902e-07,
        -2.529999971389727,
        4.2652611671638117e-07,
        0.0,
        -8.109999656677246,
        9.681289672851563,
        0.0,
        1.0
      ],
      "name": "Shape_IndexedFaceSet.002_4"
    },
    {
      "mesh": 2,
      "name": "Object_8"
    },
    {
      "children": [
        10
      ],
      "matrix": [
        -0.5445884650553352,
        -0.8387034062937075,
        7.726247563955013e-08,
        0.0,
        -3.184943919709582e-09,
        9.418938651251096e-08,
        0.9999999999999956,
        0.0,
        -4.050937388410633,
        2.630362244668454,
        -2.6065421490473964e-07,
        0.0,
        -2.0274999141693115,
        5.731789588928223,
        0.0,
        1.0
      ],
      "name": "Shape_IndexedFaceSet.003_5"
    },
    {
      "mesh": 3,
      "name": "Object_10"
    },
    {
      "children": [
        12
      ],
      "matrix": [
        0.5445884029262569,
        0.8387034466354772,
        -3.1849474169121095e-09,
        0.0,
        -7.726247608363934e-08,
        5.396567293036725e-08,
        0.9999999999999956,
        0.0,
        4.050937183336375,
        -2.6303616849050235,
        4.5493467564030844e-07,
        0.0,
        -6.082500457763672,
        8.364789962768555,
        0.0,
        1.0
      ],
      "name": "Shape_IndexedFaceSet.004_6"
    },
    {
      "mesh": 4,
      "name": "Object_12"
    },
    {
      "children": [
        14
      ],
      "matrix": [
        -0.5445884339908003,
        0.8387034264645907,
        4.6593602032185544e-08,
        0.0,
        -1.9474866247426448e-07,
        -1.8200887974550994e-07,
        0.9999999999999645,
        0.0,
        4.050937485835877,
        2.6303620946266286,
        1.2676639160748463e-06,
        0.0,
        2.0274999141693115,
        5.731789588928223,
        0.0,
        1.0
      ],
      "name": "Shape_IndexedFaceSet.005_7"
    },
    {
      "mesh": 5,
      "name": "Object_14"
    },
    {
      "children": [
        16
      ],
      "matrix": [
        0.5445883718617154,
        -0.8387034668063517,
        1.143012399174026e-07,
        0.0,
        -3.3853814529472004e-08,
        1.143012398063803e-07,
        0.9999999999999929,
        0.0,
        -4.0509372807617385,
        -2.6303615348633187,
        1.6351390491551433e-07,
        0.0,
        6.082500457763672,
        8.364789962768555,
        0.0,
        1.0
      ],
      "name": "Shape_IndexedFaceSet.006_8"
    },
    {
      "mesh": 6,
      "name": "Object_16"
    }
  ],
  "scene": 0,
  "scenes": [
    {
      "name": "Sketchfab_Scene",
      "nodes": [
        0
      ]
    }
  ]
}
